#N canvas 104 112 417 227 10;
#X obj 23 19 inlet~;
#X obj 205 42 inlet;
#X obj 205 156 outlet~;
#X obj 23 44 delwrite~ \$0-del 10000;
#X text 200 21 distance (meters);
#X obj 205 64 / 0.244;
#X text 256 63 speed of sound (m/ms);
#X obj 205 110 line~;
#X msg 205 87 \$1 20;
#X obj 205 132 vd~ \$0-del;
#X connect 0 0 3 0;
#X connect 1 0 5 0;
#X connect 5 0 8 0;
#X connect 7 0 9 0;
#X connect 8 0 7 0;
#X connect 9 0 2 0;
