#N canvas 0 22 526 586 10;
#X obj 241 93 inlet;
#X obj 241 116 route mute polar;
#X obj 287 139 unpack f f;
#X obj 176 94 inlet~;
#X obj 191 284 hoa.encoder~ 3;
#X obj 233 407 hoa.freeverb~ 3;
#N canvas 533 311 208 280 throws 0;
#X obj 36 40 inlet~;
#X obj 46 50 inlet~;
#X obj 56 60 inlet~;
#X obj 66 70 inlet~;
#X obj 76 80 inlet~;
#X obj 86 90 inlet~;
#X obj 96 100 inlet~;
#X obj 36 154 throw~ out-0;
#X obj 46 164 throw~ out-1;
#X obj 56 174 throw~ out-2;
#X obj 66 184 throw~ out-3;
#X obj 76 194 throw~ out-4;
#X obj 86 204 throw~ out-5;
#X obj 96 214 throw~ out-6;
#X connect 0 0 7 0;
#X connect 1 0 8 0;
#X connect 2 0 9 0;
#X connect 3 0 10 0;
#X connect 4 0 11 0;
#X connect 5 0 12 0;
#X connect 6 0 13 0;
#X restore 155 499 pd throws -----;
#N canvas 155 271 457 487 verbcontrol 0;
#X obj 125 68 inlet;
#X text 123 39 distance (meters);
#X obj 126 246 outlet;
#X msg 126 207 dry \$1;
#X obj 125 139 exp;
#X obj 125 162 inv;
#X text 197 87 roll-off;
#X obj 171 68 loadbang;
#X obj 125 113 *;
#X msg 171 89 0.3;
#X connect 0 0 8 0;
#X connect 3 0 2 0;
#X connect 4 0 5 0;
#X connect 5 0 3 0;
#X connect 7 0 9 0;
#X connect 8 0 4 0;
#X connect 9 0 8 1;
#X restore 75 194 pd verbcontrol;
#N canvas 61 257 468 417 distancer 0;
#X obj 89 33 inlet~;
#X obj 234 31 inlet;
#X obj 83 298 outlet~;
#X obj 86 250 *~;
#X obj 234 127 *;
#X obj 234 149 inv;
#X text 207 11 distance (meters);
#X msg 264 158 1;
#X obj 264 135 loadbang;
#X obj 249 224 line~;
#X msg 249 203 \$1 20;
#X text 133 271 TODO: lowpass to model air absorbtion;
#X obj 234 105 *;
#X obj 249 58 loadbang;
#X obj 249 180 min;
#X msg 249 83 1;
#X text 276 83 1/x will be the loudest;
#X connect 0 0 3 0;
#X connect 1 0 12 0;
#X connect 3 0 2 0;
#X connect 4 0 5 0;
#X connect 5 0 14 0;
#X connect 7 0 14 1;
#X connect 8 0 7 0;
#X connect 9 0 3 1;
#X connect 10 0 9 0;
#X connect 12 0 4 0;
#X connect 12 0 4 1;
#X connect 13 0 15 0;
#X connect 14 0 10 0;
#X connect 15 0 12 1;
#X restore 176 195 pd distancer;
#X obj 191 246 doppler;
#X obj 299 244 line~;
#X msg 302 217 \$1 20;
#N canvas 505 95 511 442 drywet 0;
#X obj 233 40 inlet~;
#X obj 159 319 outlet~;
#X obj 159 172 *~;
#X obj 294 167 *~;
#X obj 243 50 inlet~;
#X obj 169 329 outlet~;
#X obj 169 182 *~;
#X obj 253 60 inlet~;
#X obj 179 339 outlet~;
#X obj 179 192 *~;
#X obj 263 70 inlet~;
#X obj 189 349 outlet~;
#X obj 189 202 *~;
#X obj 273 80 inlet~;
#X obj 199 359 outlet~;
#X obj 199 212 *~;
#X obj 283 90 inlet~;
#X obj 209 369 outlet~;
#X obj 209 222 *~;
#X obj 293 100 inlet~;
#X obj 219 379 outlet~;
#X obj 219 232 *~;
#X obj 304 177 *~;
#X obj 314 187 *~;
#X obj 324 197 *~;
#X obj 334 207 *~;
#X obj 344 217 *~;
#X obj 354 227 *~;
#X obj 53 90 line~;
#X msg 53 67 \$1 20;
#X obj 53 45 inlet;
#X obj 340 133 -~;
#X msg 340 91 1;
#X obj 340 68 loadbang;
#X obj 294 318 outlet~;
#X obj 304 328 outlet~;
#X obj 314 338 outlet~;
#X obj 324 348 outlet~;
#X obj 334 358 outlet~;
#X obj 344 368 outlet~;
#X obj 354 378 outlet~;
#X connect 0 0 2 0;
#X connect 0 0 3 0;
#X connect 2 0 1 0;
#X connect 3 0 34 0;
#X connect 4 0 6 0;
#X connect 4 0 22 0;
#X connect 6 0 5 0;
#X connect 7 0 9 0;
#X connect 7 0 23 0;
#X connect 9 0 8 0;
#X connect 10 0 12 0;
#X connect 10 0 24 0;
#X connect 12 0 11 0;
#X connect 13 0 15 0;
#X connect 13 0 25 0;
#X connect 15 0 14 0;
#X connect 16 0 18 0;
#X connect 16 0 26 0;
#X connect 18 0 17 0;
#X connect 19 0 21 0;
#X connect 19 0 27 0;
#X connect 21 0 20 0;
#X connect 22 0 35 0;
#X connect 23 0 36 0;
#X connect 24 0 37 0;
#X connect 25 0 38 0;
#X connect 26 0 39 0;
#X connect 27 0 40 0;
#X connect 28 0 2 1;
#X connect 28 0 6 1;
#X connect 28 0 9 1;
#X connect 28 0 12 1;
#X connect 28 0 15 1;
#X connect 28 0 18 1;
#X connect 28 0 21 1;
#X connect 28 0 31 1;
#X connect 29 0 28 0;
#X connect 30 0 29 0;
#X connect 31 0 3 1;
#X connect 31 0 22 1;
#X connect 31 0 23 1;
#X connect 31 0 24 1;
#X connect 31 0 25 1;
#X connect 31 0 26 1;
#X connect 31 0 27 1;
#X connect 32 0 31 0;
#X connect 33 0 32 0;
#X restore 88 368 pd drywet ----------------------------------;
#N canvas 320 130 450 300 verbsettings 0;
#X obj 148 258 outlet;
#X obj 138 46 loadbang;
#X msg 84 190 damp 0.8;
#X msg 190 186 size 0.5;
#X connect 1 0 2 0;
#X connect 1 0 3 0;
#X connect 2 0 0 0;
#X connect 3 0 0 0;
#X restore 380 366 pd verbsettings;
#X connect 0 0 1 0;
#X connect 1 1 2 0;
#X connect 2 0 7 0;
#X connect 2 0 8 1;
#X connect 2 0 9 1;
#X connect 2 1 11 0;
#X connect 3 0 8 0;
#X connect 4 0 12 1;
#X connect 4 1 12 2;
#X connect 4 2 12 3;
#X connect 4 3 12 4;
#X connect 4 4 12 5;
#X connect 4 5 12 6;
#X connect 4 6 12 7;
#X connect 5 0 6 0;
#X connect 5 1 6 1;
#X connect 5 2 6 2;
#X connect 5 3 6 3;
#X connect 5 4 6 4;
#X connect 5 5 6 5;
#X connect 5 6 6 6;
#X connect 7 0 12 0;
#X connect 8 0 9 0;
#X connect 9 0 4 0;
#X connect 10 0 4 1;
#X connect 11 0 10 0;
#X connect 12 0 6 0;
#X connect 12 1 6 1;
#X connect 12 2 6 2;
#X connect 12 3 6 3;
#X connect 12 4 6 4;
#X connect 12 5 6 5;
#X connect 12 6 6 6;
#X connect 12 7 5 0;
#X connect 12 8 5 1;
#X connect 12 9 5 2;
#X connect 12 10 5 3;
#X connect 12 11 5 4;
#X connect 12 12 5 5;
#X connect 12 13 5 6;
#X connect 13 0 5 0;
