#N canvas 446 42 810 679 10;
#X obj 142 525 hoa.decoder~ 3 binaural @pinnae [ small ];
#X obj 148 73 hoa.map @patching_rect [ 148 73 300 300 ] @size [ 300
300 ] @fontname [ helvetica ] @fontweight [ normal ] @fontslant [ regular
] @fontsize [ 11 ] @bgcolor [ 0.9 0.9 0.9 1 ] @bgcolor2 [ 0.75 0.75
0.75 1 ] @bdcolor [ 0 0 0 1 ] @selcolor [ 0.36 0.37 0.37 0.5 ] @outputmode
[ 0 ] @zoom [ 0.09 ] sources_parameters [ source 0 -3.55556 2.81481
0 0.2 0.2 0.2 1 s_nosymbol source 1 -0.666667 3.48148 0 0.2 0.2 0.2
1 s_nosymbol ];
#X obj 144 388 route 0 1 2 3 4 5;
#N canvas 800 320 267 260 catches 0;
#X obj 51 35 catch~ out-0;
#X obj 61 45 catch~ out-1;
#X obj 71 55 catch~ out-2;
#X obj 81 65 catch~ out-3;
#X obj 91 75 catch~ out-4;
#X obj 101 85 catch~ out-5;
#X obj 111 95 catch~ out-6;
#X obj 51 134 outlet~;
#X obj 61 144 outlet~;
#X obj 71 154 outlet~;
#X obj 81 164 outlet~;
#X obj 91 174 outlet~;
#X obj 101 184 outlet~;
#X obj 111 194 outlet~;
#X connect 0 0 7 0;
#X connect 1 0 8 0;
#X connect 2 0 9 0;
#X connect 3 0 10 0;
#X connect 4 0 11 0;
#X connect 5 0 12 0;
#X connect 6 0 13 0;
#X restore 142 494 pd catches ------------------------------;
#X obj 246 551 dac~;
#X obj -189 283 *~;
#X obj -173 249 osc~ 95;
#X obj -204 195 *~ 300;
#X obj -203 174 osc~ 33;
#X obj -328 332 line~;
#X obj -251 392 *~;
#X msg -291 299 0 50;
#X obj -325 192 tgl 15 0 empty empty empty 17 7 0 10 -262144 -1 -1
1 1;
#X obj -205 223 osc~ 220;
#X obj -329 240 metro 300;
#X obj -288 272 delay 200;
#X obj 281 181;
#X msg -341 295 1 5;
#X obj -188 317 *~ 0.5;
#X obj -195 96 soundfiler;
#X obj -52 312 bng 15 250 50 0 empty empty empty 17 7 0 10 -262144
-1 -1;
#X obj -48 358 tabplay~ sample;
#X msg -194 48 read -resize chris_mann.wav sample;
#X obj -325 68 table sample;
#X obj -194 15 loadbang;
#X obj 33 449 spacialize;
#X obj -56 451 spacialize;
#X connect 0 0 4 0;
#X connect 0 1 4 1;
#X connect 1 0 2 0;
#X connect 2 0 26 1;
#X connect 2 1 25 1;
#X connect 3 0 0 0;
#X connect 3 1 0 1;
#X connect 3 2 0 2;
#X connect 3 3 0 3;
#X connect 3 4 0 4;
#X connect 3 5 0 5;
#X connect 3 6 0 6;
#X connect 5 0 18 0;
#X connect 6 0 5 1;
#X connect 7 0 13 0;
#X connect 8 0 7 0;
#X connect 9 0 10 0;
#X connect 10 0 26 0;
#X connect 11 0 9 0;
#X connect 12 0 14 0;
#X connect 13 0 5 0;
#X connect 14 0 17 0;
#X connect 14 0 15 0;
#X connect 15 0 11 0;
#X connect 17 0 9 0;
#X connect 18 0 10 1;
#X connect 20 0 21 0;
#X connect 21 0 25 0;
#X connect 21 1 20 0;
#X connect 22 0 19 0;
#X connect 24 0 22 0;
